<?xml version="1.0" standalone="no"?>
<!DOCTYPE svg PUBLIC "-//W3C//DTD SVG 20010904//EN"
 "http://www.w3.org/TR/2001/REC-SVG-20010904/DTD/svg10.dtd">
<svg version="1.0" xmlns="http://www.w3.org/2000/svg"
 width="1017.000000pt" height="505.000000pt" viewBox="0 0 1017.000000 505.000000"
 preserveAspectRatio="xMidYMid meet">

<g transform="translate(0.000000,505.000000) scale(0.100000,-0.100000)"
fill="#000000" stroke="none">
<path fill="#eeeeee" d="M4490 5046 c0 -2 61 -131 136 -287 75 -156 160 -333 189 -394 29 -60
159 -333 290 -605 l237 -494 -164 -161 c-90 -88 -374 -369 -632 -623 -258
-254 -473 -459 -476 -455 -6 7 -58 192 -261 930 -22 79 -57 208 -79 288 -22
80 -58 210 -80 290 -22 80 -58 209 -80 287 -21 79 -57 208 -79 288 -22 80 -58
210 -80 290 -22 80 -71 256 -108 392 l-68 248 -1067 0 c-673 0 -1068 -4 -1068
-10 0 -5 45 -32 100 -60 55 -29 100 -56 100 -61 0 -5 -60 -235 -134 -512 -139
-519 -878 -3284 -1062 -3972 -57 -215 -104 -398 -104 -408 0 -31 -62 -79 586
458 132 110 358 297 500 415 142 118 306 253 364 302 l106 87 21 78 c11 43 64
238 117 433 53 195 134 495 180 665 46 171 139 513 206 760 67 248 135 497
150 555 16 58 31 98 34 90 5 -13 115 -406 401 -1425 46 -165 106 -379 134
-475 27 -96 81 -290 121 -430 39 -140 72 -255 73 -255 1 0 128 3 282 6 154 4
609 7 1010 8 l731 1 414 407 c228 224 523 514 655 645 l240 238 371 0 371 0
51 -107 c28 -60 139 -292 247 -518 108 -225 224 -467 257 -537 l61 -128 654 0
c359 0 653 4 653 8 0 9 -40 94 -212 452 -41 85 -198 411 -348 724 l-273 569
329 326 c181 179 489 483 684 676 677 668 1000 989 1000 997 0 4 -375 8 -833
8 l-832 0 -125 -122 c-69 -67 -362 -357 -652 -645 l-526 -523 -392 0 -391 0
-71 148 c-127 267 -170 356 -208 437 -21 44 -101 212 -178 372 -77 161 -143
302 -147 313 -6 20 -14 20 -666 20 -362 0 -659 -2 -659 -4z"/>
</g>
</svg>
